<?xml version="1.0" encoding="UTF-8" standalone="no"?>
<svg
   width="1556.3496"
   height="2180.1475"
   viewBox="0 0 335.29 469.67614"
   version="1.1"
   id="svg44"
   sodipodi:docname="css3.svg"
   inkscape:version="1.1 (c68e22c387, 2021-05-23)"
   xmlns:inkscape="http://www.inkscape.org/namespaces/inkscape"
   xmlns:sodipodi="http://sodipodi.sourceforge.net/DTD/sodipodi-0.dtd"
   xmlns="http://www.w3.org/2000/svg"
   xmlns:svg="http://www.w3.org/2000/svg">
  <defs
     id="defs48" />
  <sodipodi:namedview
     id="namedview46"
     pagecolor="#ffffff"
     bordercolor="#666666"
     borderopacity="1.0"
     inkscape:pageshadow="2"
     inkscape:pageopacity="0.0"
     inkscape:pagecheckerboard="0"
     showgrid="false"
     inkscape:zoom="0.3128"
     inkscape:cx="775.25575"
     inkscape:cy="962.27621"
     inkscape:window-width="1920"
     inkscape:window-height="986"
     inkscape:window-x="-11"
     inkscape:window-y="-11"
     inkscape:window-maximized="1"
     inkscape:current-layer="svg44" />
  <path
     d="m -101.646,-34.4535 h 538.584 v 538.583 h -538.584 z"
     fill="none"
     id="path2" />
  <path
     d="M 303.854,433.0005 167.644,469.6765 31.432,433.0005 0,92.4755 h 335.29 z"
     fill="#24d1aa"
     id="path4" />
  <path
     d="m 167.643,120.0575 v 320.367 l 0.308,0.084 110.229,-29.682 25.443,-290.769 z"
     fill="#8ff2dc"
     id="path6" />
  <path
     d="M 90.339,42.4455 V 22.1775 H 119.91 V -5.0033711e-4 H 68.161 V 62.6835 h 51.749 v -20.238 z m 82.766,-20.268 h 20.674 V -5.0033711e-4 H 142.025 V 22.1775 c 6.924,6.924 10.535,10.238 20.549,20.252 -5.854,0 -20.549,0.021 -20.549,0.02 v 20.234 h 51.754 v -20.238 z m 73.352,0 H 267.13 V -5.0033711e-4 H 215.374 V 22.1775 c 6.924,6.924 10.537,10.238 20.551,20.252 -5.852,0 -20.551,0.021 -20.551,0.02 v 20.234 h 51.757 v -20.238 z"
     style="fill:#216959"
     id="path8" />
  <path
     d="m 167.522,205.2025 -97.49,40.602 3.233,40.199 94.257,-40.301 100.265,-42.868 4.157,-41.122 z"
     fill="#ffffff"
     id="path10" />
  <linearGradient
     id="a"
     gradientUnits="userSpaceOnUse"
     x1="-825.508"
     y1="1338.301"
     x2="-825.508"
     y2="1419.1021"
     gradientTransform="matrix(1,0,0,-1,944.284,1624.3055)">
    <stop
       offset=".387"
       stop-color="#d1d3d4"
       stop-opacity="0"
       id="stop12" />
    <stop
       offset="1"
       stop-color="#d1d3d4"
       id="stop14" />
  </linearGradient>
  <path
     d="m 70.031,245.8045 3.233,40.199 94.257,-40.301 v -40.5 z"
     fill="url(#a)"
     id="path17"
     style="fill:url(#a)" />
  <linearGradient
     id="b"
     gradientUnits="userSpaceOnUse"
     x1="-724.552"
     y1="1378.6021"
     x2="-724.552"
     y2="1462.5909"
     gradientTransform="matrix(1,0,0,-1,944.284,1624.3055)">
    <stop
       offset=".387"
       stop-color="#d1d3d4"
       stop-opacity="0"
       id="stop19" />
    <stop
       offset="1"
       stop-color="#d1d3d4"
       id="stop21" />
  </linearGradient>
  <path
     d="m 271.944,161.7135 -104.422,43.489 v 40.5 l 100.265,-42.868 z"
     fill="url(#b)"
     id="path24"
     style="fill:url(#b)" />
  <linearGradient
     id="c"
     gradientUnits="userSpaceOnUse"
     x1="-874.10303"
     y1="1302.2629"
     x2="-680.039"
     y2="1302.2629"
     gradientTransform="matrix(1,0,0,-1,944.284,1624.3055)">
    <stop
       offset="0"
       stop-color="#e8e7e5"
       id="stop26" />
    <stop
       offset="1"
       stop-color="#fff"
       id="stop28" />
  </linearGradient>
  <path
     d="m 70.181,245.8045 3.234,40.199 144.625,0.461 -3.235,53.598 -47.59,13.398 -45.748,-11.551 -2.772,-33.268 H 76.187 l 5.545,64.225 85.945,25.412 85.479,-24.951 11.09,-127.523 z"
     fill="url(#c)"
     id="path31"
     style="fill:url(#c)" />
  <path
     d="m 167.522,245.8045 h -97.49 l 3.233,40.199 94.257,0.301 z m 0,107.528 -0.462,0.129 -45.742,-11.551 -2.772,-33.268 H 76.039 l 5.544,64.225 85.939,25.412 z"
     opacity="0.05"
     id="path33" />
  <linearGradient
     id="d"
     gradientUnits="userSpaceOnUse"
     x1="-883.03198"
     y1="1442.031"
     x2="-672.341"
     y2="1442.031"
     gradientTransform="matrix(1,0,0,-1,944.284,1624.3055)">
    <stop
       offset="0"
       stop-color="#e8e7e5"
       id="stop35" />
    <stop
       offset="1"
       stop-color="#fff"
       id="stop37" />
  </linearGradient>
  <path
     d="m 61.252,161.7135 h 210.692 l -4.157,41.122 H 66.334 Z"
     fill="url(#d)"
     id="path40"
     style="fill:url(#d)" />
  <path
     d="M 167.522,161.7135 H 61.252 l 5.082,41.122 h 101.188 z"
     opacity="0.05"
     id="path42" />
</svg>
