<?xml version="1.0" encoding="UTF-8" standalone="no"?>
<svg
   xmlns:dc="http://purl.org/dc/elements/1.1/"
   xmlns:cc="http://creativecommons.org/ns#"
   xmlns:rdf="http://www.w3.org/1999/02/22-rdf-syntax-ns#"
   xmlns:svg="http://www.w3.org/2000/svg"
   xmlns="http://www.w3.org/2000/svg"
   xmlns:sodipodi="http://sodipodi.sourceforge.net/DTD/sodipodi-0.dtd"
   xmlns:inkscape="http://www.inkscape.org/namespaces/inkscape"
   viewBox="0 0 18 24"
   version="1.1"
   id="svg1337"
   sodipodi:docname="iconmonstr-linux-os-1.svg"
   width="18"
   height="24"
   inkscape:version="1.0.2 (e86c870879, 2021-01-15)">
  <metadata
     id="metadata1343">
    <rdf:RDF>
      <cc:Work
         rdf:about="">
        <dc:format>image/svg+xml</dc:format>
        <dc:type
           rdf:resource="http://purl.org/dc/dcmitype/StillImage" />
      </cc:Work>
    </rdf:RDF>
  </metadata>
  <defs
     id="defs1341" />
  <sodipodi:namedview
     pagecolor="#ffffff"
     bordercolor="#666666"
     borderopacity="1"
     objecttolerance="10"
     gridtolerance="10"
     guidetolerance="10"
     inkscape:pageopacity="0"
     inkscape:pageshadow="2"
     inkscape:window-width="1904"
     inkscape:window-height="1000"
     id="namedview1339"
     showgrid="false"
     inkscape:zoom="35.916667"
     inkscape:cx="9"
     inkscape:cy="9.7726218"
     inkscape:window-x="8"
     inkscape:window-y="35"
     inkscape:window-maximized="0"
     inkscape:current-layer="svg1337" />
  <path
     d="M 17.581,19.049 C 17.031,18.603 17.245,17.618 16.674,17.132 17.227,13.767 15.677,10.801 13.829,8.9 12.278,7.305 12.778,5.753 12.778,4.41 12.778,2.264 11.897,0 9.228,0 6.375,0 5.593,2.38 5.565,3.738 5.497,7 6.224,7.848 4.315,10.222 2.069,13.015 1.738,15.801 2.245,17.279 2.008,17.555 1.688,17.861 1.09,18.114 -0.562,18.834 0.649,20.039 0.192,20.894 0.062,21.137 0,21.391 0,21.634 c 0,0.75 0.596,1.399 1.679,1.302 1.461,-0.13 2.809,0.905 3.681,0.905 0.77,0 1.402,-0.438 1.696,-1.041 1.377,-0.339 3.077,-0.296 4.453,0.059 0.247,0.691 0.917,1.141 1.662,1.141 1.631,0 1.945,-1.849 3.816,-2.475 C 17.661,21.3 18,20.646 18,20.037 18,19.647 17.861,19.276 17.581,19.049 Z M 8.434,8.584 c -0.319,0 -0.583,-0.258 -1,-0.568 C 6.906,7.624 6.369,7.398 6.375,6.986 6.375,6.703 6.754,6.616 7.244,6.305 7.77,5.972 7.975,5.634 8.493,5.634 c 0.53,0 0.69,0.268 1.41,0.579 0.708,0.307 1.201,0.427 1.201,0.773 0,0.355 -0.741,0.609 -1.158,0.868 -0.613,0.378 -0.928,0.73 -1.512,0.73 z M 10.099,3.369 C 10.981,3.51 11.08,5.06 10.658,5.823 L 10.303,5.678 C 10.487,5.135 10.484,4.241 9.868,4.184 9.477,4.148 9.225,4.664 9.171,5.106 9.018,5.042 8.851,4.996 8.648,4.979 8.71,4.056 9.306,3.242 10.099,3.369 Z M 6.696,3.7 C 7.372,3.532 7.771,4.318 7.774,5.135 l -0.31,0.19 C 7.422,4.982 7.269,4.428 6.885,4.546 6.474,4.674 6.541,5.629 6.77,5.825 L 6.464,5.995 C 6.044,5.288 6.045,3.862 6.696,3.7 Z M 4.581,22.943 c -1.963,-0.893 -2.63,-0.69 -3.005,-0.69 -0.777,0 -1.031,-0.579 -0.739,-1.127 0.248,-0.465 0.171,-0.952 0.11,-1.343 -0.094,-0.599 -0.111,-0.794 0.478,-1.052 0.815,-0.346 1.177,-0.791 1.447,-1.124 0.758,-0.937 1.523,0.537 2.15,1.85 0.407,0.851 1.208,1.282 1.455,2.225 0.227,0.871 -0.71,1.801 -1.896,1.261 z m 6.987,-1.874 C 10.184,21.742 8.421,22.051 7.102,21.368 6.907,20.805 6.595,20.441 6.259,20.075 6.798,19.933 7.198,19.261 6.719,18.586 6.208,17.865 5.164,17.362 4.109,16.546 3.122,15.783 2.81,13.902 4.154,11.8 3.499,13.662 3.882,15.378 4.211,15.869 4.279,14.881 4.357,13.231 5.707,11.254 6.388,10.256 6.398,8.938 6.413,8.114 l 0.62,0.424 c 0.456,0.337 0.838,0.708 1.386,0.708 0.81,0 1.258,-0.466 1.882,-0.853 0.244,-0.15 0.613,-0.302 0.923,-0.513 0.52,2.476 2.674,5.454 2.795,7.15 0.501,-1.032 -0.142,-3.514 -0.142,-3.514 0.842,1.285 0.909,2.356 0.946,3.67 0.589,0.241 1.221,0.869 1.279,1.696 l -0.245,-0.028 c -0.126,-0.919 -2.607,-2.269 -2.83,-0.539 -1.19,0.181 -0.757,2.066 -0.997,3.288 -0.11,0.559 -0.314,1.001 -0.462,1.466 z m 4.846,-0.041 c -0.985,0.38 -1.65,1.187 -2.107,1.688 -0.88,0.966 -2.044,0.503 -2.168,-0.401 -0.131,-0.966 0.36,-1.493 0.572,-2.574 0.193,-0.987 -0.023,-2.506 0.431,-2.668 0.295,1.753 2.066,1.016 2.47,0.538 0.657,0 0.712,0.222 0.859,0.837 0.092,0.385 0.219,0.709 0.578,1.09 0.418,0.447 0.29,1.133 -0.635,1.49 z m -8,-13.006 C 7.763,8.022 7.276,7.589 6.88,7.253 6.677,7.082 6.93,6.766 7.133,6.938 7.52,7.266 7.91,7.613 8.414,7.613 9.021,7.613 9.556,7.094 10.281,6.808 10.528,6.711 10.669,7.093 10.424,7.19 9.72,7.467 9.155,8.022 8.414,8.022 Z"
     style="fill:#5da192"
     id="path1335" />
</svg>
