<?xml version="1.0" encoding="UTF-8" standalone="no"?>
<svg
   width="94"
   height="94"
   version="1.1"
   id="svg8"
   sodipodi:docname="java-vertical.svg"
   inkscape:version="1.1 (c68e22c387, 2021-05-23)"
   xmlns:inkscape="http://www.inkscape.org/namespaces/inkscape"
   xmlns:sodipodi="http://sodipodi.sourceforge.net/DTD/sodipodi-0.dtd"
   xmlns="http://www.w3.org/2000/svg"
   xmlns:svg="http://www.w3.org/2000/svg">
  <defs
     id="defs12" />
  <sodipodi:namedview
     id="namedview10"
     pagecolor="#ffffff"
     bordercolor="#666666"
     borderopacity="1.0"
     inkscape:pageshadow="2"
     inkscape:pageopacity="0.0"
     inkscape:pagecheckerboard="0"
     showgrid="false"
     inkscape:zoom="4.2659575"
     inkscape:cx="38.092269"
     inkscape:cy="28.012469"
     inkscape:window-width="1920"
     inkscape:window-height="991"
     inkscape:window-x="-9"
     inkscape:window-y="-9"
     inkscape:window-maximized="1"
     inkscape:current-layer="svg8" />
  <path
     d="m 36.825008,50.640894 c 0,0 -2.523049,1.535623 1.7558,1.974854 5.167422,0.658284 7.899415,0.548196 13.603799,-0.548196 0,0 1.535623,0.98855 3.620566,1.7558 C 42.9675,59.308682 26.730562,53.494209 36.825008,50.640894 Z m -1.645712,-7.131042 c 0,0 -2.743227,2.084942 1.535623,2.52305 5.594297,0.548196 9.984358,0.658284 17.554631,-0.876215 0,0 0.98855,1.097515 2.633138,1.645712 -15.468564,4.607991 -32.804141,0.438107 -21.723392,-3.291423 z m 30.281091,12.507407 c 0,0 1.864766,1.535623 -2.084941,2.743227 -7.35122,2.193908 -30.829288,2.853315 -37.412134,0 -2.302873,-0.98855 2.084942,-2.415208 3.510477,-2.633138 1.426658,-0.329143 2.193908,-0.329143 2.193908,-0.329143 -2.523051,-1.755799 -16.786258,3.620565 -7.241131,5.167422 26.221295,4.279974 47.835722,-1.864766 41.032699,-4.937134 z M 38.031489,36.048545 c 0,0 -11.959211,2.853315 -4.279973,3.839619 3.291423,0.438107 9.76418,0.329142 15.79883,-0.110089 4.937133,-0.438107 9.885503,-1.31657 9.885503,-1.31657 0,0 -1.755801,0.768374 -2.962282,1.535623 -12.188375,3.184705 -35.557478,1.758047 -28.864543,-1.533376 5.70663,-2.743227 10.422465,-2.415207 10.422465,-2.415207 z m 21.393126,11.959211 c 12.289477,-6.363793 6.582846,-12.507407 2.633138,-11.739035 -0.98855,0.219055 -1.426659,0.438108 -1.426659,0.438108 0,0 0.329143,-0.658284 1.097517,-0.876215 7.789326,-2.743227 13.934064,8.228558 -2.523049,12.507407 0,0 0.110087,-0.110088 0.219053,-0.329141 z M 39.23797,65.341085 c 11.849122,0.768374 29.951948,-0.438108 30.391179,-6.03465 0,0 -0.876214,2.193908 -9.764181,3.839619 -10.093322,1.864766 -22.601853,1.645712 -29.951948,0.438109 0,0 1.535623,1.316568 9.326073,1.755799 z"
     fill="#4e7896"
     id="path2"
     style="fill:#5da192;fill-opacity:1;stroke-width:1.12335" />
  <path
     d="m 51.95432,-0.15710718 c 0,0 6.801899,6.91198808 -6.472757,17.33332818 -10.642642,8.447612 -2.415208,13.275781 0,18.759988 C 39.227859,30.341913 34.731079,25.403655 37.801201,20.795664 42.310338,13.997134 54.706534,10.705711 51.95432,-0.15710718 Z M 48.443843,31.330463 c 3.181334,3.620566 -0.876214,6.911989 -0.876214,6.911989 0,0 8.118469,-4.167638 4.388937,-9.326073 -3.40151,-4.937134 -6.03465,-7.351219 8.228558,-15.580899 0,0 -22.491764,5.594295 -11.739034,17.992738 z"
     fill="#f58219"
     id="path4"
     style="fill:#8ff2dc;fill-opacity:1;stroke-width:1.12335" />
  <path
     d="M 42.782147,88.829264 V 78.078781 c 0,-2.743227 -1.535623,-4.607993 -5.376366,-4.607993 -2.193906,0 -4.059797,0.548196 -5.706632,1.20648 l 0.548196,1.974854 c 1.206482,-0.438107 2.743227,-0.876215 4.38894,-0.876215 2.084941,0 3.07237,0.876215 3.07237,2.633139 v 1.426657 h -1.097517 c -5.266276,0 -7.68036,1.974854 -7.68036,5.167422 0,2.633139 1.64571,4.167637 4.60799,4.167637 1.864766,0 3.291423,-0.876214 4.607993,-1.974853 l 0.219055,1.645712 h 2.415207 z m -3.07237,-3.510477 c -1.097515,0.98855 -2.302872,1.535622 -3.40151,1.535622 -1.426659,0 -2.302874,-0.876214 -2.302874,-2.415207 0,-1.538993 0.876215,-2.633138 4.388939,-2.633138 h 1.315445 v 3.510476 z m 13.384745,3.510477 H 49.254903 L 44.646911,73.798806 h 3.291423 l 2.853317,9.215986 0.658283,2.743225 c 1.426658,-3.949707 2.52305,-8.009503 2.96228,-11.959211 h 3.291423 c -0.876214,4.937135 -2.415206,10.312378 -4.60799,15.030458 z m 17.773685,0 V 78.078781 c 0,-2.743227 -1.535623,-4.607993 -5.376365,-4.607993 -2.193908,0 -4.059796,0.548196 -5.706631,1.20648 l 0.438107,1.974854 c 1.316569,-0.438107 2.853316,-0.876215 4.497904,-0.876215 2.084942,0 3.072369,0.876215 3.072369,2.633139 v 1.426657 h -1.097515 c -5.266277,0 -7.680362,1.974854 -7.680362,5.167422 0,2.633139 1.535623,4.167637 4.497904,4.167637 1.974853,0 3.401511,-0.876214 4.71808,-1.974853 l 0.219054,1.645712 h 2.415208 z m -3.07237,-3.510477 c -1.097514,0.98855 -2.302872,1.535622 -3.401511,1.535622 -1.426657,0 -2.302873,-0.876214 -2.302873,-2.415207 0,-1.538993 0.876216,-2.633138 4.388939,-2.633138 h 1.31657 V 85.31654 Z M 27.532636,91.35119 c -0.876216,1.316569 -2.193908,2.302873 -3.839619,2.853316 l -1.426658,-1.755801 c 1.097516,-0.658285 2.193908,-1.645711 2.633138,-2.523049 0.438109,-0.768374 0.548196,-1.864766 0.548196,-4.388939 V 68.423565 h 3.291423 v 16.895222 c 0,3.401512 -0.329143,4.718081 -1.20648,6.03465 z"
     fill="#4e7896"
     id="path6"
     style="fill:#216959;fill-opacity:1;stroke-width:1.12335" />
</svg>
