<?xml version="1.0" encoding="UTF-8" standalone="no"?>
<svg
   xmlns:dc="http://purl.org/dc/elements/1.1/"
   xmlns:cc="http://creativecommons.org/ns#"
   xmlns:rdf="http://www.w3.org/1999/02/22-rdf-syntax-ns#"
   xmlns:svg="http://www.w3.org/2000/svg"
   xmlns="http://www.w3.org/2000/svg"
   xmlns:sodipodi="http://sodipodi.sourceforge.net/DTD/sodipodi-0.dtd"
   xmlns:inkscape="http://www.inkscape.org/namespaces/inkscape"
   version="1.1"
   id="Layer_1"
   x="0px"
   y="0px"
   sodipodi:docname="kotlin.svg"
   viewBox="0 0 450 100.094"
   width="450"
   height="100.094"
   xml:space="preserve"
   inkscape:version="1.0.2 (e86c870879, 2021-01-15)"><metadata
   id="metadata292"><rdf:RDF><cc:Work
       rdf:about=""><dc:format>image/svg+xml</dc:format><dc:type
         rdf:resource="http://purl.org/dc/dcmitype/StillImage" /><dc:title></dc:title></cc:Work></rdf:RDF></metadata><defs
   id="defs290" /><sodipodi:namedview
   pagecolor="#ffffff"
   bordercolor="#666666"
   borderopacity="1"
   objecttolerance="10"
   gridtolerance="10"
   guidetolerance="10"
   inkscape:pageopacity="0"
   inkscape:pageshadow="2"
   inkscape:window-width="1904"
   inkscape:window-height="1000"
   id="namedview288"
   showgrid="false"
   fit-margin-top="0"
   fit-margin-left="0"
   fit-margin-right="0"
   fit-margin-bottom="0"
   inkscape:zoom="1.6835938"
   inkscape:cx="127.88631"
   inkscape:cy="36.433299"
   inkscape:window-x="8"
   inkscape:window-y="35"
   inkscape:window-maximized="0"
   inkscape:current-layer="Layer_1" />
<g
   id="g285"
   transform="matrix(1,0,0,0.99242631,-31,-193.56693)">
	<title
   id="title242">logo_Kotlin</title>
	<g
   id="g283">
		<g
   id="g250">
			<path
   style="fill:#216959"
   d="m 155.824,199.855 h 20.775 v 41.279 L 214.91,199.855 H 240 l -38.446,40.065 40.199,54.365 h -24.956 l -29.272,-40.199 -10.927,11.331 v 28.868 h -20.775 v -94.43 z"
   id="path244" />
			<path
   style="fill:#216959"
   d="m 230.713,258.535 v -0.268 c 0,-20.775 16.728,-37.638 39.256,-37.638 22.394,0 38.987,16.593 38.987,37.367 v 0.271 c 0,20.774 -16.728,37.635 -39.256,37.635 -22.393,0 -38.987,-16.592 -38.987,-37.367 z m 58.007,0 v -0.268 c 0,-10.658 -7.689,-19.966 -19.021,-19.966 -11.736,0 -18.751,9.037 -18.751,19.695 v 0.271 c 0,10.657 7.689,19.964 19.02,19.964 11.738,0 18.752,-9.038 18.752,-19.696 z"
   id="path246" />
			<path
   style="fill:#216959"
   d="m 314.616,273.779 v -34.264 h -8.634 v -17.536 h 8.634 v -18.482 h 20.505 v 18.481 h 16.998 v 17.537 H 335.12 v 30.893 c 0,4.72 2.023,7.014 6.61,7.014 3.535,0.017 7.017,-0.865 10.117,-2.564 v 16.458 c -4.317,2.563 -9.308,4.182 -16.187,4.182 -12.545,0 -21.044,-4.992 -21.044,-21.719 z m 43.388,-77.971 h 20.505 v 98.476 h -20.505 z m 27.916,0 h 21.583 v 18.211 H 385.92 Z m 0.54,26.17 h 20.504 v 72.305 H 386.46 Z m 28.305,0 h 20.505 v 10.252 c 4.721,-6.07 10.792,-11.601 21.178,-11.601 15.514,0 24.552,10.253 24.552,26.845 v 46.809 h -20.505 v -40.334 c 0,-9.712 -4.587,-14.704 -12.411,-14.704 -7.825,0 -12.815,4.991 -12.815,14.704 v 40.334 h -20.505 z"
   id="path248" />
		</g>
		
			<linearGradient
   id="SVGID_1_"
   gradientUnits="userSpaceOnUse"
   x1="-227.9357"
   y1="635.4151"
   x2="-204.2149"
   y2="659.13599"
   gradientTransform="matrix(3.7037,0,0,-3.7037,859.3107,2639.9961)">
			<stop
   offset="0.108"
   style="stop-color:#C757BC"
   id="stop252" />
			<stop
   offset="0.173"
   style="stop-color:#CD5CA9"
   id="stop254" />
			<stop
   offset="0.492"
   style="stop-color:#E8744F"
   id="stop256" />
			<stop
   offset="0.716"
   style="stop-color:#F88316"
   id="stop258" />
			<stop
   offset="0.823"
   style="stop-color:#FF8900"
   id="stop260" />
		</linearGradient>
		<path
   style="fill:#5da192"
   d="M 78.402,199.808 31,249.656 v 44.563 l 47.333,-47.416 47.078,-46.995 z"
   id="path263" />
		
			<linearGradient
   id="SVGID_2_"
   gradientUnits="userSpaceOnUse"
   x1="-215.50861"
   y1="628.76147"
   x2="-203.9467"
   y2="640.32361"
   gradientTransform="matrix(3.7037,0,0,-3.7037,859.3107,2639.9961)">
			<stop
   offset="0.296"
   style="stop-color:#00AFFF"
   id="stop265" />
			<stop
   offset="0.694"
   style="stop-color:#5282FF"
   id="stop267" />
			<stop
   offset="1"
   style="stop-color:#945DFF"
   id="stop269" />
		</linearGradient>
		<path
   style="fill:#8ff2dc"
   d="m 31,294.219 47.333,-47.416 47.078,47.416 z"
   id="path272" />
		
			<linearGradient
   id="SVGID_3_"
   gradientUnits="userSpaceOnUse"
   x1="-223.9502"
   y1="651.81598"
   x2="-215.83929"
   y2="659.92688"
   gradientTransform="matrix(3.7037,0,0,-3.7037,859.3107,2639.9961)">
			<stop
   offset="0.296"
   style="stop-color:#00AFFF"
   id="stop274" />
			<stop
   offset="0.694"
   style="stop-color:#5282FF"
   id="stop276" />
			<stop
   offset="1"
   style="stop-color:#945DFF"
   id="stop278" />
		</linearGradient>
		<path
   style="fill:#24d1aa"
   d="M 31,199.808 H 78.402 L 31,249.656 Z"
   id="path281" />
	</g>
</g>
</svg>
